<?xml version="1.0" encoding="UTF-8"?>
<svg width="16px" height="13px" viewBox="0 0 16 13" version="1.1" xmlns="http://www.w3.org/2000/svg" xmlns:xlink="http://www.w3.org/1999/xlink">
    <!-- Generator: Sketch 50.2 (55047) - http://www.bohemiancoding.com/sketch -->
    <title>twitter_grey</title>
    <desc>Created with Sketch.</desc>
    <defs></defs>
    <g id="Page-1" stroke="none" stroke-width="1" fill="none" fill-rule="evenodd" opacity="0.200000003">
        <g id="Desktop-Copy" transform="translate(-379.000000, -467.000000)" fill="#000000">
            <g id="Group-5" transform="translate(377.000000, 337.000000)">
                <g id="Twitter" transform="translate(2.000000, 130.000000)">
                    <path d="M0.9354,0.555743167 C0.9354,0.555743167 3.6588,3.88965226 7.8076,4.09016741 C7.8076,4.09016741 6.9608,1.87898559 9.4922,0.363303773 C9.4922,0.363303773 11.5488,-0.826393196 13.5336,1.09997044 C13.5336,1.09997044 14.4288,1.05722802 15.5078,0.275849228 C15.5078,0.275849228 15.6666,0.994788622 14.2596,2.15119771 C14.2596,2.15119771 15.0424,2.08875832 15.931,1.5155765 C15.931,1.5155765 15.7618,2.50534923 14.3124,3.22428862 C14.3124,3.22428862 14.7534,11.0554098 6.9936,12.7694401 C6.9936,12.7694401 2.89,13.6814098 0,11.4485613 C0,11.4485613 3.0656,11.762925 4.6942,10.0804098 C4.6942,10.0804098 2.6506,10.2691068 1.6446,7.89463711 C1.6446,7.89463711 2.6664,8.0675765 3.0816,7.73745529 C3.0816,7.73745529 0.926,7.75301589 0.447,4.57668256 C0.447,4.57668256 1.3252,5.01690983 1.9,4.93831893 C1.9,4.93831893 -0.5402,3.45395529 0.9354,0.555743167" id="twitter_grey"></path>
                </g>
            </g>
        </g>
    </g>
</svg>