<?xml version="1.0" encoding="UTF-8"?>
<svg width="18px" height="18px" viewBox="0 0 18 18" version="1.1" xmlns="http://www.w3.org/2000/svg" xmlns:xlink="http://www.w3.org/1999/xlink">
    <!-- Generator: Sketch 50.2 (55047) - http://www.bohemiancoding.com/sketch -->
    <title>insta_grey</title>
    <desc>Created with Sketch.</desc>
    <defs></defs>
    <g id="Page-1" stroke="none" stroke-width="1" fill="none" fill-rule="evenodd" opacity="0.200000003">
        <g id="Desktop-Copy" transform="translate(-377.000000, -510.000000)" fill="#000000" fill-rule="nonzero">
            <g id="Group-5" transform="translate(377.000000, 337.000000)">
                <g id="Instagram" transform="translate(0.000000, 173.000000)">
                    <g id="Icon" transform="translate(0.182349, 0.077266)">
                        <path d="M0.177712912,5.20728593 C0.177712912,2.42989222 2.43105937,0.177712912 5.20855774,0.177712912 L12.6709066,0.177712912 C15.4497227,0.177712912 17.7017514,2.42858177 17.7017514,5.20728593 L17.7017514,12.5794586 C17.7017514,15.3568523 15.4484049,17.6090316 12.6709066,17.6090316 L5.20855774,17.6090316 C2.42974154,17.6090316 0.177712912,15.3581627 0.177712912,12.5794586 L0.177712912,5.20728593 Z M1.80030907,5.20728593 L1.80030907,12.5794586 C1.80030907,14.4618405 3.3256896,15.9864354 5.20855774,15.9864354 L12.6709066,15.9864354 C14.5524579,15.9864354 16.0791552,14.4605289 16.0791552,12.5794586 L16.0791552,5.20728593 C16.0791552,3.32490404 14.5537747,1.80030907 12.6709066,1.80030907 L5.20855774,1.80030907 C3.32700635,1.80030907 1.80030907,3.32621557 1.80030907,5.20728593 Z M8.96291209,13.5757212 C6.41532799,13.5757212 4.35010302,11.5104962 4.35010302,8.96291209 C4.35010302,6.41532799 6.41532799,4.35010302 8.96291209,4.35010302 C11.5104962,4.35010302 13.5757212,6.41532799 13.5757212,8.96291209 C13.5757212,11.5104962 11.5104962,13.5757212 8.96291209,13.5757212 Z M8.96291209,11.953125 C10.6143611,11.953125 11.953125,10.6143611 11.953125,8.96291209 C11.953125,7.3114631 10.6143611,5.97269918 8.96291209,5.97269918 C7.3114631,5.97269918 5.97269918,7.3114631 5.97269918,8.96291209 C5.97269918,10.6143611 7.3114631,11.953125 8.96291209,11.953125 Z M13.622081,5.34684066 C13.0075884,5.34684066 12.5094437,4.84869594 12.5094437,4.2342033 C12.5094437,3.61971065 13.0075884,3.12156593 13.622081,3.12156593 C14.2365737,3.12156593 14.7347184,3.61971065 14.7347184,4.2342033 C14.7347184,4.84869594 14.2365737,5.34684066 13.622081,5.34684066 Z" id="insta_grey"></path>
                    </g>
                </g>
            </g>
        </g>
    </g>
</svg>